<svg width="640" height="384" viewBox="0 0 640 384" xmlns="http://www.w3.org/2000/svg"><title>Chrome DevTools Logo</title><defs><radialGradient cx="14.715%" cy="13.402%" fx="14.715%" fy="13.402%" r=".839%" id="a"><stop stop-color="#FFF" stop-opacity=".12" offset="0%"/><stop stop-color="#FFF" stop-opacity="0" offset="100%"/></radialGradient><radialGradient cx="4.837%" cy="-.002%" fx="4.837%" fy="-.002%" r="5.097%" gradientTransform="scale(1 .58238)" id="b"><stop stop-color="#1A237E" stop-opacity=".2" offset="0%"/><stop stop-color="#1A237E" stop-opacity="0" offset="100%"/></radialGradient><radialGradient cx="83.253%" cy="10.676%" fx="83.253%" fy="10.676%" r="5.77%" gradientTransform="matrix(1 0 0 .5713 0 .046)" id="c"><stop stop-color="#1A237E" stop-opacity=".12" offset="0%"/><stop stop-color="#1A237E" stop-opacity="0" offset="100%"/></radialGradient><radialGradient cx="43.141%" cy="2.165%" fx="43.141%" fy="2.165%" r=".701%" gradientTransform="matrix(.67561 0 0 1 .14 0)" id="d"><stop stop-color="#1A237E" stop-opacity=".15" offset="0%"/><stop stop-color="#1A237E" stop-opacity="0" offset="100%"/></radialGradient></defs><g fill="none" fill-rule="evenodd"><path d="M33.626-7.26h573.453v397.47H33.626z"/><g transform="translate(56 80)"><rect fill="#2879FF" fill-rule="nonzero" x="23.54" y="23.37" width="176.54" height="176.54" rx="13.94"/><g stroke="#FFF" stroke-opacity=".2" stroke-width=".5"><path d="M.31.14l223 223m0-223l-223 223M144 .14v223M79.58.14v223m143.73-79.27H.31m223-64.46H.31"/><circle cx="111.81" cy="111.64" r="45.3"/><path d="M.31 111.64h223M111.81.14v223"/></g><circle fill="url(#a)" fill-rule="nonzero" cx="111.81" cy="111.64" r="69.69"/><path d="M186.15 23.37H37.48c-7.681.033-13.902 6.249-13.94 13.93v1.16c.038-7.681 6.259-13.897 13.94-13.93h148.67c7.685.033 13.907 6.255 13.94 13.94V37.3c-.033-7.685-6.255-13.907-13.94-13.94v.01z" fill="#F1F3F4" fill-rule="nonzero" opacity=".2"/><path d="M186.15 198.75H37.48c-7.685-.033-13.907-6.255-13.94-13.94V186c.033 7.685 6.255 13.907 13.94 13.94h148.67c7.681-.038 13.897-6.259 13.93-13.94v-1.16c-.033 7.685-6.255 13.907-13.94 13.94l.01-.03z" fill="#000" fill-rule="nonzero" opacity=".1"/><path d="M81 101.74a31.89 31.89 0 0 0 2.6 24.79l-31-53.23L81 101.74z" fill="url(#b)" fill-rule="nonzero"/><path d="M118.75 143a31.84 31.84 0 0 0 20.43-15.1l-30.85 54 10.42-38.9z" fill="url(#c)" fill-rule="nonzero"/><path d="M112.15 79.7H174l-38.82 10.37c10.12 11.108 11.08 27.786 2.302 39.982-8.78 12.196-24.9 16.58-38.646 10.508-13.746-6.072-21.363-20.94-18.26-35.643C83.678 90.213 96.653 79.69 111.68 79.69l.47.01z" fill="url(#d)" fill-rule="nonzero"/><path d="M111.81 180.16c37.848 0 68.53-30.682 68.53-68.53S149.658 43.1 111.81 43.1s-68.53 30.682-68.53 68.53 30.682 68.53 68.53 68.53h0z" stroke="#FFF" stroke-width="2"/><circle stroke="#FFF" stroke-width="2" cx="111.81" cy="111.64" r="31.36"/><circle stroke="#FFF" stroke-width="2" cx="111.81" cy="111.64" r="22.07"/><path d="M111.81 79.12h61.56v2.32h-61.56v-2.32zm-4.633 100.931l30.78-53.312 2.009 1.16-30.78 53.312-2.009-1.16zM52.86 74.585l2.01-1.16 30.78 53.313-2.01 1.16-30.78-53.313z" fill="#F1F3F4" fill-rule="nonzero"/></g><path d="M285.616 220v-55.848h17.082c8.528 0 15.379 2.574 20.553 7.722 5.174 5.148 7.761 11.882 7.761 20.202 0 8.372-2.587 15.119-7.761 20.241-5.174 5.122-12.025 7.683-20.553 7.683h-17.082zm7.176-48.984v42.12h9.906c6.5 0 11.622-1.859 15.366-5.577 3.744-3.718 5.616-8.879 5.616-15.483 0-6.552-1.872-11.7-5.616-15.444-3.744-3.744-8.866-5.616-15.366-5.616h-9.906zm61.464 50.232c-5.616 0-10.244-1.924-13.884-5.772-3.64-3.848-5.46-8.71-5.46-14.586 0-5.824 1.768-10.673 5.304-14.547 3.536-3.874 8.06-5.811 13.572-5.811 5.668 0 10.179 1.833 13.533 5.499 3.354 3.666 5.031 8.801 5.031 15.405l-.078.78h-30.03c.104 3.744 1.352 6.76 3.744 9.048 2.392 2.288 5.252 3.432 8.58 3.432 4.576 0 8.164-2.288 10.764-6.864l6.396 3.12c-1.716 3.224-4.095 5.746-7.137 7.566-3.042 1.82-6.487 2.73-10.335 2.73zm-11.466-24.96h21.918c-.208-2.652-1.287-4.849-3.237-6.591-1.95-1.742-4.563-2.613-7.839-2.613-2.704 0-5.031.832-6.981 2.496-1.95 1.664-3.237 3.9-3.861 6.708zM396.688 220h-7.176l-15.444-38.22h7.8l11.232 29.64h.156l11.388-29.64h7.644l-15.6 38.22zm40.56-48.984V220h-7.176v-48.984h-15.6v-6.864h38.376v6.864h-15.6zm13.416 29.874c0-5.876 1.846-10.738 5.538-14.586 3.744-3.848 8.45-5.772 14.118-5.772 5.668 0 10.348 1.924 14.04 5.772 3.744 3.848 5.616 8.71 5.616 14.586 0 5.928-1.872 10.79-5.616 14.586-3.692 3.848-8.372 5.772-14.04 5.772-5.668 0-10.374-1.924-14.118-5.772-3.692-3.848-5.538-8.71-5.538-14.586zm7.176 0c0 4.108 1.196 7.436 3.588 9.984 2.392 2.548 5.356 3.822 8.892 3.822 3.536 0 6.5-1.274 8.892-3.822 2.392-2.548 3.588-5.876 3.588-9.984 0-4.056-1.196-7.358-3.588-9.906-2.444-2.6-5.408-3.9-8.892-3.9-3.484 0-6.448 1.3-8.892 3.9-2.392 2.548-3.588 5.85-3.588 9.906zm36.504 0c0-5.876 1.846-10.738 5.538-14.586 3.744-3.848 8.45-5.772 14.118-5.772 5.668 0 10.348 1.924 14.04 5.772 3.744 3.848 5.616 8.71 5.616 14.586 0 5.928-1.872 10.79-5.616 14.586-3.692 3.848-8.372 5.772-14.04 5.772-5.668 0-10.374-1.924-14.118-5.772-3.692-3.848-5.538-8.71-5.538-14.586zm7.176 0c0 4.108 1.196 7.436 3.588 9.984 2.392 2.548 5.356 3.822 8.892 3.822 3.536 0 6.5-1.274 8.892-3.822 2.392-2.548 3.588-5.876 3.588-9.984 0-4.056-1.196-7.358-3.588-9.906-2.444-2.6-5.408-3.9-8.892-3.9-3.484 0-6.448 1.3-8.892 3.9-2.392 2.548-3.588 5.85-3.588 9.906zm45.474-36.738V220h-7.176v-55.848h7.176zm37.596 45.24c0 3.328-1.456 6.136-4.368 8.424-2.912 2.288-6.578 3.432-10.998 3.432-3.848 0-7.228-1.001-10.14-3.003-2.912-2.002-4.992-4.641-6.24-7.917l6.396-2.73c.936 2.288 2.301 4.069 4.095 5.343 1.794 1.274 3.757 1.911 5.889 1.911 2.288 0 4.199-.494 5.733-1.482 1.534-.988 2.301-2.158 2.301-3.51 0-2.444-1.872-4.238-5.616-5.382l-6.552-1.638c-7.436-1.872-11.154-5.46-11.154-10.764 0-3.484 1.417-6.279 4.251-8.385 2.834-2.106 6.461-3.159 10.881-3.159 3.38 0 6.435.806 9.165 2.418 2.73 1.612 4.641 3.77 5.733 6.474l-6.396 2.652c-.728-1.612-1.911-2.873-3.549-3.783-1.638-.91-3.471-1.365-5.499-1.365-1.872 0-3.549.468-5.031 1.404-1.482.936-2.223 2.08-2.223 3.432 0 2.184 2.054 3.744 6.162 4.68l5.772 1.482c7.592 1.872 11.388 5.694 11.388 11.466z" fill="#000"/></g></svg>